<mxfile host="app.diagrams.net" modified="2023-07-26T09:47:38.574Z" agent="Mozilla/5.0 (Windows NT 10.0; Win64; x64) AppleWebKit/537.36 (KHTML, like Gecko) Chrome/115.0.0.0 Safari/537.36 Edg/115.0.1901.183" version="21.6.3" etag="L_LMjk21WXglLyjBpBTH" type="github">
  <diagram name="Page-1" id="l7rszuyUpMP2Na09CU7W">
    <mxGraphModel>
      <root>
        <mxCell id="0" />
        <mxCell id="1" parent="0" />
      </root>
    </mxGraphModel>
  </diagram>
</mxfile>
